<svg xmlns="http://www.w3.org/2000/svg" width="14" height="14" viewBox="0 0 14 14" fill="none">
  <g clip-path="url(#clip0_1850_23720)">
    <path d="M5.01024 2.33203C5.03468 2.34424 5.05762 2.37202 5.06912 2.39673C5.52213 3.37053 5.94076 4.36504 6.40978 5.33105C6.91366 5.57734 7.46972 5.81047 7.98288 6.04566C8.43903 6.25473 8.97309 6.51904 9.43671 6.70135C8.84308 6.96363 8.25808 7.21762 7.66782 7.49323C7.28473 7.67211 6.80407 7.90837 6.41345 8.05892C6.00482 8.89346 5.6452 9.75848 5.25163 10.6007C5.18002 10.7539 5.11867 10.9089 5.03688 11.0576C5.02563 11.0579 5.01439 11.0581 5.00314 11.0584C4.97144 10.965 4.9339 10.8816 4.89189 10.7924C4.62869 10.2252 4.36917 9.6563 4.11335 9.08576L3.84697 8.49103C3.8008 8.38854 3.68921 8.09984 3.5966 8.0523C3.37987 7.94107 3.14508 7.84193 2.92188 7.74124L1.37089 7.03098C1.22209 6.96307 0.78327 6.78007 0.671544 6.71484L0.667969 6.69612C0.718211 6.65839 1.31811 6.3898 1.41362 6.34635C1.88981 6.12434 2.36774 5.90611 2.84739 5.69168C3.09239 5.58034 3.33968 5.47062 3.58429 5.35858C3.64004 5.33305 3.68646 5.25167 3.71283 5.19689C3.80184 5.01197 3.88368 4.81958 3.9686 4.63253L4.49729 3.4666C4.58719 3.26241 4.67935 3.05922 4.77377 2.85707C4.84835 2.69977 4.95625 2.4919 5.01024 2.33203ZM4.49226 6.14576C4.13046 6.32923 3.75567 6.48562 3.3868 6.65409C3.34854 6.67156 3.31017 6.68974 3.27339 6.71012C3.48028 6.78444 4.32901 7.13641 4.46373 7.254C4.51634 7.29992 4.54649 7.37949 4.57581 7.4416C4.70663 7.71863 4.83548 7.9998 4.96084 8.27939C4.98236 8.32737 4.99524 8.37828 5.01744 8.42586L5.02985 8.42513C5.18968 8.11702 5.39586 7.57681 5.55408 7.29685C5.62567 7.17017 6.5895 6.78017 6.77675 6.70719C6.41913 6.53757 5.9322 6.34678 5.59676 6.14962C5.46818 6.07406 5.01543 4.96453 5.01543 4.96453C5.0013 4.9987 4.90416 5.23254 4.84511 5.36706C4.73196 5.62482 4.599 5.8866 4.49226 6.14576Z" fill="white"/>
    <path d="M10.5455 8.37891C10.5793 8.40339 11.1662 9.71418 11.2152 9.85439C11.3026 9.89034 11.3961 9.94396 11.4852 9.98137C11.9064 10.1582 12.3305 10.3837 12.7531 10.5472L11.8139 10.9715C11.6227 11.057 11.4 11.146 11.2224 11.251C11.1766 11.3341 11.0903 11.5437 11.0481 11.6374L10.7041 12.3962C10.6851 12.4383 10.5715 12.7037 10.5548 12.7279C10.4043 12.4777 10.2561 12.1137 10.1311 11.8452C10.0541 11.6801 9.93423 11.4286 9.88029 11.2669C9.69626 11.1403 8.39007 10.5843 8.36719 10.5458C8.39143 10.517 9.71319 9.92841 9.86587 9.85036C10.054 9.39809 10.3221 8.80701 10.5455 8.37891Z" fill="white"/>
    <path d="M10.5429 0.695312C10.586 0.728527 11.1463 2 11.2191 2.16654C11.3837 2.26425 11.7122 2.403 11.8945 2.48223C12.18 2.60629 12.4591 2.74161 12.7419 2.86627C12.6564 2.90836 12.5583 2.94283 12.4693 2.98279L11.7326 3.31707C11.5905 3.38094 11.2522 3.50373 11.1877 3.64355C11.1153 3.80039 11.0176 3.99524 10.9562 4.15644C10.8548 4.42257 10.6239 4.78832 10.5609 5.05365C10.441 4.85327 10.3307 4.59895 10.2327 4.38464C10.1095 4.12039 9.99021 3.85434 9.87488 3.58657C9.66492 3.42289 8.61531 2.97869 8.34375 2.872C8.78974 2.61894 9.44184 2.40977 9.86631 2.16183C10.0976 1.6581 10.2832 1.1978 10.5429 0.695312Z" fill="white"/>
  </g>
  <defs>
    <clipPath id="clip0_1850_23720">
      <rect width="13.3333" height="13.3333" fill="white"/>
    </clipPath>
  </defs>
</svg>