<svg xmlns="http://www.w3.org/2000/svg" width="16" height="16" viewBox="0 0 16 16" fill="none">
  <mask id="mask0_291_6022" style="mask-type:alpha" maskUnits="userSpaceOnUse" x="0" y="0" width="16" height="16">
    <rect width="16" height="16" fill="white"/>
  </mask>
  <g mask="url(#mask0_291_6022)">
    <path d="M2 6.43333V5.01667L5.01667 2H6.43333L2 6.43333ZM2 3.16667V2H3.16667L2 3.16667ZM10.7833 4.28333C10.6722 4.16111 10.5528 4.04167 10.425 3.925C10.2972 3.80833 10.1667 3.70556 10.0333 3.61667L11.65 2H13.0667L10.7833 4.28333ZM3.66667 9.98333L4.95 8.7C5.02778 8.82222 5.10833 8.93333 5.19167 9.03333C5.275 9.13333 5.36667 9.22778 5.46667 9.31667C5.15556 9.39444 4.84167 9.49167 4.525 9.60833C4.20833 9.725 3.92222 9.85 3.66667 9.98333ZM11.6667 6.7V6.66667C11.6667 6.45556 11.65 6.25 11.6167 6.05C11.5833 5.85 11.5333 5.65556 11.4667 5.46667L14 2.93333V4.36667L11.6667 6.7ZM7.26667 3.06667L8.35 2H9.76667L8.7 3.06667C8.57778 3.04444 8.46111 3.02778 8.35 3.01667C8.23889 3.00556 8.12222 3 8 3C7.87778 3 7.75556 3.00556 7.63333 3.01667C7.51111 3.02778 7.38889 3.04444 7.26667 3.06667ZM2 9.75V8.33333L4.4 5.93333C4.37778 6.05556 4.36111 6.17778 4.35 6.3C4.33889 6.42222 4.33333 6.54444 4.33333 6.66667C4.33333 6.78889 4.33889 6.90556 4.35 7.01667C4.36111 7.12778 4.37778 7.23889 4.4 7.35L2 9.75ZM13.8167 11.1333C13.7278 11 13.625 10.8722 13.5083 10.75C13.3917 10.6278 13.2667 10.5167 13.1333 10.4167L14 9.55V10.9667L13.8167 11.1333ZM11.8833 9.76667C11.8056 9.73333 11.7278 9.70278 11.65 9.675C11.5722 9.64722 11.4944 9.62222 11.4167 9.6C11.3167 9.56667 11.2194 9.53333 11.125 9.5C11.0306 9.46667 10.9333 9.43889 10.8333 9.41667L14 6.23333V7.66667L11.8833 9.76667ZM8 9.33333C7.26667 9.33333 6.63889 9.07222 6.11667 8.55C5.59444 8.02778 5.33333 7.4 5.33333 6.66667C5.33333 5.93333 5.59444 5.30556 6.11667 4.78333C6.63889 4.26111 7.26667 4 8 4C8.73333 4 9.36111 4.26111 9.88333 4.78333C10.4056 5.30556 10.6667 5.93333 10.6667 6.66667C10.6667 7.4 10.4056 8.02778 9.88333 8.55C9.36111 9.07222 8.73333 9.33333 8 9.33333ZM8.94167 7.60833C9.20278 7.34722 9.33333 7.03333 9.33333 6.66667C9.33333 6.3 9.20278 5.98611 8.94167 5.725C8.68056 5.46389 8.36667 5.33333 8 5.33333C7.63333 5.33333 7.31944 5.46389 7.05833 5.725C6.79722 5.98611 6.66667 6.3 6.66667 6.66667C6.66667 7.03333 6.79722 7.34722 7.05833 7.60833C7.31944 7.86944 7.63333 8 8 8C8.36667 8 8.68056 7.86944 8.94167 7.60833ZM2.66667 14V12.8167C2.66667 12.4389 2.76111 12.0889 2.95 11.7667C3.13889 11.4444 3.4 11.2 3.73333 11.0333C4.3 10.7444 4.94167 10.5 5.65833 10.3C6.375 10.1 7.15556 10 8 10C8.84444 10 9.625 10.1 10.3417 10.3C11.0583 10.5 11.7 10.7444 12.2667 11.0333C12.6 11.2 12.8611 11.4444 13.05 11.7667C13.2389 12.0889 13.3333 12.4389 13.3333 12.8167V14H2.66667ZM4.01667 12.6667H11.9833C11.9611 12.5667 11.9222 12.4806 11.8667 12.4083C11.8111 12.3361 11.7389 12.2778 11.65 12.2333C11.25 12.0333 10.7417 11.8333 10.125 11.6333C9.50833 11.4333 8.8 11.3333 8 11.3333C7.2 11.3333 6.49167 11.4333 5.875 11.6333C5.25833 11.8333 4.75 12.0333 4.35 12.2333C4.26111 12.2778 4.18889 12.3389 4.13333 12.4167C4.07778 12.4944 4.03889 12.5778 4.01667 12.6667Z" fill="white"/>
  </g>
</svg>