<svg width="34" height="34" viewBox="0 0 34 34" fill="none" xmlns="http://www.w3.org/2000/svg">
<path d="M2.8845 34C2.10017 34 1.42333 33.7153 0.854 33.146C0.284667 32.5767 0 31.8998 0 31.1155V2.8845C0 2.10017 0.284667 1.42333 0.854 0.854001C1.42333 0.284668 2.10017 0 2.8845 0H31.1155C31.8998 0 32.5767 0.284668 33.146 0.854001C33.7153 1.42333 34 2.10017 34 2.8845V31.1155C34 31.8998 33.7153 32.5767 33.146 33.146C32.5767 33.7153 31.8998 34 31.1155 34H2.8845ZM2.8845 31.7305H31.1155C31.2692 31.7305 31.4102 31.6665 31.5385 31.5385C31.6665 31.4102 31.7305 31.2692 31.7305 31.1155V2.8845C31.7305 2.73083 31.6665 2.58983 31.5385 2.4615C31.4102 2.3335 31.2692 2.2695 31.1155 2.2695H2.8845C2.73083 2.2695 2.58983 2.3335 2.4615 2.4615C2.3335 2.58983 2.2695 2.73083 2.2695 2.8845V31.1155C2.2695 31.2692 2.3335 31.4102 2.4615 31.5385C2.58983 31.6665 2.73083 31.7305 2.8845 31.7305ZM6.358 26.6115H27.846L21.3615 17.9845L15.319 25.6885L11.2075 20.3195L6.358 26.6115ZM11.5155 11.5085C11.9282 11.0908 12.1345 10.5857 12.1345 9.993C12.1345 9.40033 11.9258 8.8975 11.5085 8.4845C11.0908 8.07183 10.5857 7.8655 9.993 7.8655C9.40033 7.8655 8.8975 8.07417 8.4845 8.4915C8.07183 8.90917 7.8655 9.41433 7.8655 10.007C7.8655 10.5997 8.07417 11.1025 8.4915 11.5155C8.90917 11.9282 9.41433 12.1345 10.007 12.1345C10.5997 12.1345 11.1025 11.9258 11.5155 11.5085Z" fill="white"/>
</svg>
