<svg xmlns="http://www.w3.org/2000/svg" width="11" height="11" viewBox="0 0 11 11" fill="none">
  <path d="M10.0422 10.6615L6.07167 6.69083C5.73833 6.94383 5.37283 7.13978 4.97517 7.27867C4.5775 7.41756 4.16711 7.487 3.744 7.487C2.70522 7.487 1.8215 7.12272 1.09283 6.39417C0.364278 5.6655 0 4.78194 0 3.7435C0 2.70506 0.364278 1.8215 1.09283 1.09283C1.8215 0.364278 2.70506 0 3.7435 0C4.78194 0 5.6655 0.364278 6.39417 1.09283C7.12272 1.8215 7.487 2.70522 7.487 3.744C7.487 4.17989 7.41544 4.59667 7.27233 4.99433C7.12911 5.39211 6.93528 5.75122 6.69083 6.07167L10.6613 10.0422L10.0422 10.6615ZM3.7435 6.6205C4.54694 6.6205 5.22728 6.34183 5.7845 5.7845C6.34183 5.22728 6.6205 4.54694 6.6205 3.7435C6.6205 2.94006 6.34183 2.25972 5.7845 1.7025C5.22728 1.14517 4.54694 0.8665 3.7435 0.8665C2.94006 0.8665 2.25972 1.14517 1.7025 1.7025C1.14517 2.25972 0.8665 2.94006 0.8665 3.7435C0.8665 4.54694 1.14517 5.22728 1.7025 5.7845C2.25972 6.34183 2.94006 6.6205 3.7435 6.6205Z" fill="#ffffff"/>
</svg>