<svg xmlns="http://www.w3.org/2000/svg" width="19" height="20" viewBox="0 0 19 20" fill="none">
  <path d="M13.2517 7.69225C12.7711 7.69225 12.359 7.52458 12.0155 7.18925C11.6718 6.85375 11.5 6.43808 11.5 5.94225V1.75C11.5 1.25417 11.6714 0.838583 12.0143 0.50325C12.3569 0.16775 12.7689 0 13.2503 0C13.7463 0 14.1618 0.16775 14.497 0.50325C14.8323 0.838583 15 1.25417 15 1.75V5.94225C15 6.43808 14.8325 6.85375 14.4975 7.18925C14.1623 7.52458 13.7471 7.69225 13.2517 7.69225ZM1.80775 19.25C1.31058 19.25 0.885 19.073 0.531 18.719C0.177 18.365 0 17.9394 0 17.4423V2.05775C0 1.56058 0.177 1.135 0.531 0.781C0.885 0.427 1.31058 0.25 1.80775 0.25H9.25V1.75H1.80775C1.71792 1.75 1.64417 1.77883 1.5865 1.8365C1.52883 1.89417 1.5 1.96792 1.5 2.05775V17.4423C1.5 17.5321 1.52883 17.6058 1.5865 17.6635C1.64417 17.7212 1.71792 17.75 1.80775 17.75H12.1923C12.2821 17.75 12.3558 17.7212 12.4135 17.6635C12.4712 17.6058 12.5 17.5321 12.5 17.4423V15.6152H14V17.4383C14 17.9396 13.823 18.3669 13.469 18.7203C13.115 19.0734 12.6894 19.25 12.1923 19.25H1.80775ZM3.75 15.6152V14H10.25V15.6152H3.75ZM3.75 12.6152V11.1155H8.25V12.6152H3.75ZM14 13.5H12.5V10.9385C11.2423 10.7628 10.1779 10.2077 9.30675 9.273C8.43558 8.3385 8 7.22825 8 5.94225H9.5C9.5 6.94108 9.8705 7.78375 10.6115 8.47025C11.3525 9.15675 12.2317 9.5 13.2492 9.5C14.2844 9.5 15.1683 9.15675 15.901 8.47025C16.6337 7.78375 17 6.94108 17 5.94225H18.5C18.5 7.23458 18.0686 8.3465 17.2057 9.278C16.3429 10.2093 15.2743 10.7628 14 10.9385V13.5Z" fill="white"/>
</svg>