<svg xmlns="http://www.w3.org/2000/svg" width="16" height="16" viewBox="0 0 16 16" fill="none">
  <mask id="mask0_1337_12303" style="mask-type:alpha" maskUnits="userSpaceOnUse" x="0" y="0" width="16" height="16">
    <rect width="16" height="16" fill="white"/>
  </mask>
  <g mask="url(#mask0_1337_12303)">
    <path d="M5.51634 5.15104L3.51634 3.15104L4.46634 2.20104L6.46634 4.20104L5.51634 5.15104ZM7.99967 3.56771V0.734375H9.33301V3.56771H7.99967ZM12.8497 12.4844L10.8497 10.4844L11.7997 9.53437L13.7997 11.5344L12.8497 12.4844ZM11.7997 5.15104L10.8497 4.20104L12.8497 2.20104L13.7997 3.15104L11.7997 5.15104ZM12.433 8.00104V6.66771H15.2663V8.00104H12.433ZM3.41634 14.4677L1.53301 12.5844C1.39967 12.451 1.33301 12.2955 1.33301 12.1177C1.33301 11.9399 1.39967 11.7844 1.53301 11.651L7.58301 5.58437C7.9719 5.19549 8.44412 5.00104 8.99967 5.00104C9.55523 5.00104 10.0275 5.19549 10.4163 5.58437C10.8052 5.97326 10.9997 6.44549 10.9997 7.00104C10.9997 7.5566 10.8052 8.02882 10.4163 8.41771L4.34967 14.4677C4.21634 14.601 4.06079 14.6677 3.88301 14.6677C3.70523 14.6677 3.54967 14.601 3.41634 14.4677ZM3.88301 13.0677L8.06634 8.88437L7.11634 7.95104L2.94967 12.1177L3.88301 13.0677Z" fill="white"/>
  </g>
</svg>